<?xml version="1.0" encoding="utf-8"?>
<!-- Generator: Adobe Illustrator 23.0.4, SVG Export Plug-In . SVG Version: 6.00 Build 0)  -->
<svg width="135" height="37" viewBox="0 0 150 37" fill="none" xmlns="http://www.w3.org/2000/svg">
	 viewBox="0 0 134 37" style="enable-background:new 0 0 134 37;" xml:space="preserve">
<style type="text/css">
	.st0{display:none;}
	.st1{display:inline;fill:none;stroke:#222222;stroke-width:2;}
	.st2{display:inline;}
	.st3{fill:#222222;}
	.st4{fill:#AF9A7D;}
	.st5{fill:#5759C3;}
	.st6{fill:#6A68F9;}
	.st7{fill:none;stroke:#2A29A2;stroke-width:0.5;stroke-miterlimit:10;}
</style>
<g id="Layer_1" display="none">
	<rect x="1" y="1" width="150" height="35" stroke="#222222" stroke-width="2"/>
	<g display="inline">
		<path class="st3" d="M15.3,25.2c0.6,0,1-0.1,1.4-0.2s0.7-0.3,0.9-0.6c0.2-0.2,0.4-0.5,0.5-0.8s0.1-0.6,0.1-0.9
			c0-0.4-0.1-0.7-0.2-0.9c-0.1-0.3-0.3-0.5-0.5-0.7s-0.5-0.4-0.9-0.5s-0.8-0.2-1.4-0.2h-3.1v4.8H15.3z M12.2,13.3V18h2.4
			c0.5,0,1,0,1.3-0.1c0.4-0.1,0.7-0.2,1-0.4s0.5-0.4,0.6-0.7c0.1-0.3,0.2-0.7,0.2-1.1s-0.1-0.8-0.2-1.1s-0.3-0.5-0.5-0.7
			s-0.5-0.3-0.9-0.4c-0.4-0.1-0.8-0.1-1.3-0.1L12.2,13.3L12.2,13.3z M14.8,10.6c1.2,0,2.2,0.1,3,0.3s1.5,0.5,2,0.9s0.9,0.9,1.2,1.5
			c0.2,0.6,0.4,1.2,0.4,1.9c0,0.4-0.1,0.8-0.2,1.2s-0.3,0.7-0.5,1s-0.6,0.6-0.9,0.9c-0.4,0.3-0.8,0.5-1.4,0.7
			c1.2,0.3,2.1,0.7,2.6,1.4c0.6,0.6,0.9,1.5,0.9,2.5c0,0.7-0.1,1.4-0.4,2.1c-0.3,0.6-0.7,1.2-1.2,1.6c-0.5,0.5-1.2,0.8-2,1.1
			c-0.8,0.3-1.7,0.4-2.7,0.4H8.9V10.6H14.8z M38.9,20.4c0-0.3,0-0.7-0.1-1s-0.2-0.6-0.4-0.8c-0.2-0.2-0.5-0.4-0.8-0.6
			c-0.3-0.1-0.7-0.2-1.1-0.2c-0.8,0-1.4,0.2-1.9,0.7c-0.4,0.4-0.7,1.1-0.9,1.9H38.9z M33.7,22.3c0.1,1.2,0.4,2,1,2.5
			s1.3,0.8,2.2,0.8c0.5,0,0.8-0.1,1.2-0.2c0.3-0.1,0.6-0.2,0.9-0.4c0.3-0.1,0.5-0.3,0.7-0.4s0.4-0.2,0.6-0.2c0.3,0,0.5,0.1,0.6,0.3
			l1,1.2c-0.4,0.4-0.7,0.7-1.2,1c-0.4,0.3-0.9,0.5-1.3,0.6c-0.5,0.2-0.9,0.3-1.4,0.3c-0.5,0.1-0.9,0.1-1.3,0.1
			c-0.9,0-1.7-0.1-2.4-0.4s-1.4-0.7-2-1.3c-0.6-0.6-1-1.3-1.3-2.1c-0.3-0.8-0.5-1.8-0.5-2.9c0-0.8,0.1-1.6,0.4-2.4
			c0.3-0.7,0.7-1.4,1.2-1.9s1.2-1,1.9-1.3s1.6-0.5,2.5-0.5c0.8,0,1.5,0.1,2.2,0.4c0.7,0.2,1.2,0.6,1.7,1.1s0.9,1.1,1.1,1.8
			c0.3,0.7,0.4,1.5,0.4,2.4c0,0.2,0,0.5,0,0.6c0,0.2-0.1,0.3-0.1,0.4c-0.1,0.1-0.1,0.2-0.2,0.2c-0.1,0-0.2,0-0.4,0h-7.5V22.3z
			 M57.6,22.8c-0.8,0-1.5,0.1-2,0.2s-1,0.2-1.3,0.4c-0.3,0.2-0.5,0.3-0.7,0.6c-0.1,0.2-0.2,0.4-0.2,0.7c0,0.5,0.1,0.8,0.4,1
			c0.3,0.2,0.6,0.3,1.1,0.3c0.6,0,1-0.1,1.4-0.3c0.4-0.2,0.8-0.5,1.2-0.9v-2H57.6z M50.9,17.3c0.7-0.7,1.5-1.1,2.4-1.5
			c0.9-0.3,1.8-0.5,2.9-0.5c0.7,0,1.4,0.1,2,0.4c0.6,0.2,1.1,0.6,1.5,1s0.7,0.9,0.9,1.5c0.2,0.6,0.3,1.2,0.3,1.9V28h-1.5
			c-0.3,0-0.6,0-0.7-0.1c-0.2-0.1-0.3-0.3-0.4-0.6L58,26.5c-0.3,0.3-0.6,0.5-0.9,0.7s-0.6,0.4-0.9,0.5c-0.3,0.1-0.6,0.2-1,0.3
			c-0.4,0.1-0.7,0.1-1.2,0.1s-1-0.1-1.5-0.2c-0.4-0.1-0.8-0.4-1.2-0.6c-0.3-0.3-0.6-0.6-0.7-1.1s-0.3-0.9-0.3-1.5
			c0-0.5,0.1-0.9,0.3-1.4s0.6-0.9,1.2-1.2c0.6-0.4,1.3-0.7,2.3-0.9c0.9-0.2,2.1-0.4,3.5-0.4v-0.6c0-0.8-0.2-1.3-0.5-1.7
			c-0.3-0.4-0.8-0.6-1.4-0.6c-0.5,0-0.8,0.1-1.1,0.2s-0.6,0.2-0.8,0.3c-0.2,0.1-0.4,0.2-0.6,0.3c-0.2,0.1-0.4,0.2-0.7,0.2
			c-0.2,0-0.4-0.1-0.6-0.2c-0.2-0.1-0.3-0.3-0.4-0.4L50.9,17.3z M79.6,18.4c-0.1,0.1-0.2,0.2-0.3,0.3c-0.1,0.1-0.2,0.1-0.4,0.1
			c-0.2,0-0.3,0-0.5-0.1c-0.1-0.1-0.3-0.2-0.5-0.3c-0.2-0.1-0.4-0.2-0.7-0.3c-0.3-0.1-0.6-0.1-1-0.1c-0.5,0-0.9,0.1-1.3,0.3
			c-0.4,0.2-0.7,0.4-0.9,0.8s-0.4,0.7-0.5,1.2s-0.2,1-0.2,1.6c0,1.3,0.3,2.2,0.8,2.9c0.5,0.7,1.2,1,2.1,1c0.3,0,0.6,0,0.8-0.1
			c0.2-0.1,0.4-0.1,0.6-0.2s0.3-0.2,0.4-0.3c0.1-0.1,0.2-0.2,0.3-0.3c0.1-0.1,0.2-0.1,0.3-0.2c0.1-0.1,0.2-0.1,0.4-0.1
			c0.3,0,0.5,0.1,0.6,0.3l0.9,1.2c-0.4,0.4-0.7,0.7-1.1,1s-0.8,0.5-1.2,0.6c-0.4,0.2-0.9,0.3-1.3,0.3c-0.4,0.1-0.9,0.1-1.3,0.1
			c-0.8,0-1.5-0.1-2.2-0.4s-1.3-0.7-1.8-1.2s-0.9-1.2-1.2-2c-0.3-0.8-0.4-1.7-0.4-2.7c0-0.9,0.1-1.7,0.4-2.5s0.7-1.4,1.2-2
			s1.1-1,1.9-1.3s1.6-0.5,2.6-0.5c0.9,0,1.8,0.2,2.5,0.5s1.4,0.7,1.9,1.3L79.6,18.4z M92.8,16.8c0.2-0.2,0.5-0.4,0.7-0.6
			c0.3-0.2,0.5-0.3,0.8-0.4c0.3-0.1,0.6-0.2,0.9-0.3s0.7-0.1,1.1-0.1c0.7,0,1.3,0.1,1.8,0.3s1,0.6,1.3,1c0.4,0.4,0.6,0.9,0.8,1.5
			c0.2,0.6,0.3,1.2,0.3,1.9V28h-3.3v-7.9c0-0.7-0.2-1.2-0.5-1.6s-0.8-0.6-1.4-0.6c-0.5,0-0.9,0.1-1.3,0.3c-0.4,0.2-0.8,0.5-1.2,0.8
			v9h-3.3V10.1h3.3C92.8,10.1,92.8,16.8,92.8,16.8z"/>
		<path class="st4" d="M129.1,18.8c0.6,0,1.1-0.1,1.5-0.2c0.4-0.2,0.8-0.4,1-0.6c0.3-0.3,0.5-0.6,0.6-0.9s0.2-0.7,0.2-1.2
			c0-0.8-0.3-1.5-0.8-1.9c-0.5-0.5-1.4-0.7-2.5-0.7h-1.9v5.5H129.1z M137.5,28h-3.3c-0.6,0-1-0.2-1.3-0.7l-3.3-5.3
			c-0.1-0.2-0.3-0.4-0.5-0.5s-0.4-0.1-0.7-0.1h-1.2V28h-3.6V10.6h5.5c1.2,0,2.3,0.1,3.1,0.4c0.9,0.2,1.6,0.6,2.1,1s1,1,1.2,1.6
			c0.3,0.6,0.4,1.3,0.4,2c0,0.6-0.1,1.1-0.3,1.6s-0.4,1-0.7,1.4s-0.7,0.8-1.2,1.1c-0.5,0.3-1,0.6-1.6,0.8c0.2,0.1,0.4,0.3,0.6,0.5
			c0.2,0.2,0.4,0.4,0.5,0.6L137.5,28z M153,20.4c0-0.3,0-0.7-0.1-1s-0.2-0.6-0.4-0.8s-0.5-0.4-0.8-0.6c-0.3-0.1-0.7-0.2-1.1-0.2
			c-0.8,0-1.4,0.2-1.9,0.7c-0.4,0.4-0.7,1.1-0.9,1.9H153z M147.8,22.3c0.1,1.2,0.4,2,1,2.5s1.3,0.8,2.2,0.8c0.5,0,0.8-0.1,1.2-0.2
			c0.3-0.1,0.6-0.2,0.9-0.4c0.3-0.1,0.5-0.3,0.7-0.4s0.4-0.2,0.6-0.2c0.3,0,0.5,0.1,0.6,0.3l1,1.2c-0.4,0.4-0.7,0.7-1.2,1
			c-0.4,0.3-0.9,0.5-1.3,0.6c-0.5,0.2-0.9,0.3-1.4,0.3c-0.5,0.1-0.9,0.1-1.3,0.1c-0.9,0-1.7-0.1-2.4-0.4s-1.4-0.7-2-1.3
			c-0.6-0.6-1-1.3-1.3-2.1c-0.3-0.8-0.5-1.8-0.5-2.9c0-0.8,0.1-1.6,0.4-2.4c0.3-0.7,0.7-1.4,1.2-1.9c0.5-0.6,1.2-1,1.9-1.3
			s1.6-0.5,2.5-0.5c0.8,0,1.5,0.1,2.2,0.4c0.7,0.2,1.2,0.6,1.7,1.1s0.9,1.1,1.1,1.8c0.3,0.7,0.4,1.5,0.4,2.4c0,0.2,0,0.5,0,0.6
			s-0.1,0.3-0.1,0.4c-0.1,0.1-0.1,0.2-0.2,0.2c-0.1,0-0.2,0-0.4,0h-7.5V22.3z M172.9,18.2c-0.1,0.1-0.2,0.2-0.3,0.3
			c-0.1,0.1-0.2,0.1-0.4,0.1s-0.3,0-0.5-0.1s-0.4-0.2-0.6-0.3c-0.2-0.1-0.4-0.2-0.7-0.3c-0.3-0.1-0.6-0.1-0.9-0.1
			c-0.5,0-1,0.1-1.2,0.3c-0.3,0.2-0.4,0.5-0.4,0.9c0,0.2,0.1,0.5,0.3,0.6c0.2,0.2,0.4,0.3,0.7,0.4s0.6,0.2,0.9,0.3
			c0.4,0.1,0.7,0.2,1.1,0.3c0.4,0.1,0.7,0.3,1.1,0.4c0.4,0.2,0.7,0.4,0.9,0.6c0.3,0.2,0.5,0.6,0.7,0.9c0.2,0.4,0.3,0.8,0.3,1.3
			c0,0.6-0.1,1.2-0.3,1.7s-0.5,0.9-1,1.3s-1,0.7-1.6,0.9c-0.6,0.2-1.4,0.3-2.2,0.3c-0.4,0-0.8,0-1.3-0.1c-0.4-0.1-0.8-0.2-1.2-0.3
			c-0.4-0.1-0.7-0.3-1.1-0.5s-0.6-0.4-0.9-0.6l0.8-1.2c0.1-0.1,0.2-0.3,0.3-0.3c0.1-0.1,0.3-0.1,0.5-0.1s0.4,0.1,0.6,0.2
			c0.2,0.1,0.4,0.2,0.6,0.3c0.2,0.1,0.5,0.2,0.7,0.3c0.3,0.1,0.6,0.1,1.1,0.1c0.3,0,0.6,0,0.8-0.1s0.4-0.2,0.6-0.3
			c0.1-0.1,0.2-0.3,0.3-0.4c0.1-0.2,0.1-0.3,0.1-0.5c0-0.3-0.1-0.5-0.3-0.7s-0.4-0.3-0.7-0.5c-0.3-0.1-0.6-0.2-0.9-0.3
			s-0.7-0.2-1.1-0.3c-0.4-0.1-0.7-0.3-1.1-0.5c-0.4-0.2-0.7-0.4-0.9-0.7c-0.3-0.3-0.5-0.6-0.7-1s-0.3-0.9-0.3-1.4s0.1-1,0.3-1.5
			s0.5-0.9,0.9-1.2c0.4-0.4,0.9-0.6,1.5-0.8s1.3-0.3,2.1-0.3c0.9,0,1.7,0.1,2.4,0.4s1.3,0.7,1.8,1.1L172.9,18.2z M188.6,15.4
			c0.9,0,1.8,0.1,2.5,0.4c0.8,0.3,1.4,0.7,2,1.3c0.5,0.5,1,1.2,1.3,2s0.4,1.7,0.4,2.7s-0.1,1.9-0.4,2.7c-0.3,0.8-0.7,1.5-1.3,2
			s-1.2,1-2,1.3s-1.6,0.4-2.5,0.4s-1.8-0.1-2.6-0.4s-1.4-0.7-2-1.3s-1-1.2-1.3-2s-0.4-1.7-0.4-2.7s0.1-1.9,0.4-2.7
			c0.3-0.8,0.7-1.4,1.3-2c0.5-0.6,1.2-1,2-1.3C186.8,15.6,187.7,15.4,188.6,15.4z M188.6,25.7c0.9,0,1.6-0.3,2.1-1s0.7-1.6,0.7-2.9
			s-0.2-2.2-0.7-2.9c-0.5-0.7-1.2-1-2.1-1c-1,0-1.7,0.3-2.1,1c-0.5,0.6-0.7,1.6-0.7,2.9s0.2,2.3,0.7,2.9
			C186.9,25.4,187.6,25.7,188.6,25.7z M207.2,17.7c0.4-0.7,0.8-1.3,1.4-1.7c0.5-0.4,1.1-0.6,1.8-0.6c0.6,0,1,0.1,1.4,0.4l-0.2,2.4
			c0,0.2-0.1,0.3-0.2,0.3c-0.1,0.1-0.2,0.1-0.3,0.1s-0.3,0-0.6,0c-0.2,0-0.5-0.1-0.7-0.1c-0.3,0-0.6,0-0.8,0.1s-0.4,0.2-0.6,0.4
			c-0.2,0.2-0.4,0.4-0.5,0.6s-0.3,0.5-0.4,0.8V28h-3.3V15.6h2c0.3,0,0.6,0.1,0.7,0.2c0.1,0.1,0.2,0.3,0.3,0.6L207.2,17.7z
			 M224.6,28.2c-0.6,0-1.1-0.1-1.5-0.2c-0.4-0.2-0.8-0.4-1.1-0.7c-0.3-0.3-0.5-0.7-0.7-1.1s-0.2-0.9-0.2-1.5V18H220
			c-0.2,0-0.3-0.1-0.5-0.2c-0.1-0.1-0.2-0.3-0.2-0.5V16l2-0.4l0.7-3.2c0.1-0.4,0.3-0.5,0.7-0.5h1.7v3.8h3.2V18h-3.2v6.5
			c0,0.3,0.1,0.6,0.2,0.8c0.2,0.2,0.4,0.3,0.7,0.3c0.2,0,0.3,0,0.4,0c0.1,0,0.2-0.1,0.3-0.1s0.2-0.1,0.2-0.1c0.1,0,0.1-0.1,0.2-0.1
			c0.1,0,0.2,0,0.2,0.1c0.1,0,0.1,0.1,0.2,0.2l1,1.6c-0.5,0.4-1,0.6-1.5,0.8C225.8,28.1,225.2,28.2,224.6,28.2z"/>
	</g>
</g>
<g>
	<g>
		<g>
			<path class="st5" d="M9.2,20.1c0.5,2.4,2.1,3.3,4.7,3.3c2.4,0,3.5-0.8,3.5-2.4c0-1.7-1.1-2.4-5.5-3.4c-8-1.9-9.5-4.8-9.5-8.5
				c0-4.6,3.3-8.4,10.9-8.4c7.8,0,11,4,11.3,8.2h-7.7c-0.2-1.4-1-2.9-3.8-2.9c-1.8,0-3,0.7-3,2.2s1,2.1,5.1,3.1c8.4,2.1,10,5,10,8.9
				c0,5-3.9,8.6-11.8,8.6c-7.4,0-11.4-3.4-12-8.7h7.7V20.1z"/>
			<path class="st5" d="M27.6,7.7h3V2.5h7.6v5.3h3.5v5.1h-3.5v8.8c0,1.3,0.5,1.7,2.1,1.7c0.3,0,0.7,0,1,0v4.7
				c-1.1,0.3-3.2,0.5-4.5,0.5c-4.8,0-6.2-2.4-6.2-6.3v-9.5h-2.9v-5H27.6z"/>
			<path class="st5" d="M64.3,22.2c0,2.3,0.1,5.4,0.2,6.1h-7.1c-0.1-0.5-0.3-1.4-0.3-1.9c-1,1.3-2.5,2.4-5.8,2.4
				c-4.6,0-7.1-2.9-7.1-6.5c0-4.8,3.9-6.9,10.2-6.9c0.7,0,1.8,0,2.5,0v-1.1c0-1.3-0.5-2.3-2.3-2.3c-1.7,0-2.2,0.8-2.4,2.1h-7.1
				c0.2-3.4,2.3-6.8,9.6-6.8c6.8,0,9.5,2.6,9.5,7.6v7.4H64.3z M57,19.2c-0.3,0-1.1,0-1.7,0c-2.6,0-3.5,0.9-3.5,2.4
				c0,1.3,0.7,2.2,2.3,2.2c2.6,0,3-1.7,3-4V19.2z"/>
			<path class="st5" d="M75.3,7.7c1.4,5.3,2.9,11.7,3.1,14h0.1c0.5-2.6,1.3-7.1,3-14H89L83,27.1c-2.1,6.6-3.7,9.2-10.2,9.2
				c-0.5,0-2.1-0.1-3.2-0.2v-5.5c0.2,0,0.9,0.1,1.5,0.1c1.8,0,2.7-0.5,3.3-2.1L67.1,7.7H75.3z"/>
			<path class="st5" d="M100.2,1.3v26.9h-7.9V1.3H100.2z"/>
			<path class="st5" d="M106.5,28.2V1.3h9.5c2.9,6.1,7,14.3,8.1,17.6h0.1c-0.3-2.7-0.3-7.6-0.3-11.9V1.3h7.2v26.9h-9
				c-2.3-4.9-7.2-15-8.5-18.5h-0.1c0.2,2.5,0.2,7.8,0.2,12.5v6.1H106.5z"/>
		</g>
		<g>
			<path class="st6" d="M100.2,1.3v26.9h-7.9V1.3H100.2z"/>
			<path class="st6" d="M106.6,28.2V1.3h9.5c2.9,6.1,7,14.3,8.1,17.6h0.1c-0.3-2.7-0.3-7.6-0.3-11.9V1.3h7.2v26.9h-9
				c-2.3-4.9-7.2-15-8.5-18.5h-0.1c0.2,2.5,0.2,7.8,0.2,12.5v6.1H106.6z"/>
		</g>
		<g>
			<path class="st7" d="M10.5,20.1c0.5,2.4,2.1,3.3,4.7,3.3c2.4,0,3.5-0.8,3.5-2.4c0-1.7-1.1-2.4-5.5-3.4c-8-1.9-9.5-4.8-9.5-8.5
				c0-4.6,3.3-8.4,10.9-8.4c7.8,0,11,4,11.3,8.2h-7.7c-0.2-1.5-0.9-3-3.8-3c-1.8,0-3,0.7-3,2.2s1,2.1,5.1,3.1c8.4,2.1,10,5,10,8.9
				c0,5-3.9,8.6-11.8,8.6c-7.4,0-11.4-3.4-12-8.7H10.5z"/>
			<path class="st7" d="M28.8,7.7h3V2.5h7.6v5.3h3.5v5.1h-3.5v8.8c0,1.3,0.5,1.7,2.1,1.7c0.3,0,0.7,0,1,0v4.7
				c-1.1,0.3-3.2,0.5-4.5,0.5c-4.8,0-6.2-2.4-6.2-6.3v-9.5H29v-5H28.8z"/>
			<path class="st7" d="M65.7,22.2c0,2.3,0.1,5.4,0.2,6.1h-7c-0.1-0.5-0.3-1.4-0.3-1.9c-1,1.3-2.5,2.4-5.8,2.4
				c-4.6,0-7.1-2.9-7.1-6.5c0-4.8,3.9-6.9,10.2-6.9c0.7,0,1.8,0,2.5,0v-1.1c0-1.3-0.5-2.3-2.3-2.3c-1.7,0-2.2,0.8-2.4,2.1h-7.1
				c0.2-3.4,2.3-6.8,9.6-6.8c6.8,0,9.5,2.6,9.5,7.6C65.7,14.7,65.7,22.2,65.7,22.2z M58.4,19.2c-0.3,0-1.1,0-1.7,0
				c-2.6,0-3.5,0.9-3.5,2.4c0,1.3,0.7,2.2,2.3,2.2c2.6,0,3-1.7,3-4V19.2z"/>
			<path class="st7" d="M76.6,7.7c1.4,5.3,2.9,11.7,3.1,14h0.1c0.5-2.6,1.3-7.1,3-14h7.6l-6.1,19.3c-2.1,6.6-3.7,9.2-10.2,9.2
				c-0.5,0-2.1-0.1-3.2-0.2v-5.5c0.2,0,0.9,0.1,1.5,0.1c1.8,0,2.7-0.5,3.3-2.1L68.3,7.7H76.6z"/>
			<path class="st7" d="M101.5,1.3v26.9h-7.9V1.3H101.5z"/>
			<path class="st7" d="M107.9,28.2V1.3h9.5c2.9,6.1,7,14.3,8.1,17.6h0.1c-0.3-2.7-0.3-7.6-0.3-11.9V1.3h7.2v26.9h-9
				c-2.3-4.9-7.2-15-8.5-18.5h-0.1c0.2,2.5,0.2,7.8,0.2,12.5v6.1H107.9z"/>
		</g>
	</g>
</g>
</svg>
