<?xml version="1.0" encoding="utf-8"?>
<!-- Generator: Adobe Illustrator 23.0.4, SVG Export Plug-In . SVG Version: 6.00 Build 0)  -->
<svg width="150" height="37" viewBox="0 0 150 37" fill="none" xmlns="http://www.w3.org/2000/svg">
<g id="Layer_1" display="none">
	<rect x="1" y="1" width="150" height="35" stroke="#222222" stroke-width="2"/>
	<g display="inline">
		<path fill="#222222" d="M23.3,25.2c0.6,0,1-0.1,1.4-0.2c0.4-0.1,0.7-0.3,0.9-0.6c0.2-0.2,0.4-0.5,0.5-0.8c0.1-0.3,0.1-0.6,0.1-0.9
			c0-0.4-0.1-0.7-0.2-0.9c-0.1-0.3-0.3-0.5-0.5-0.7c-0.2-0.2-0.5-0.4-0.9-0.5c-0.4-0.1-0.8-0.2-1.4-0.2h-3.1v4.8H23.3z M20.2,13.3
			V18h2.4c0.5,0,1,0,1.3-0.1c0.4-0.1,0.7-0.2,1-0.4s0.5-0.4,0.6-0.7c0.1-0.3,0.2-0.7,0.2-1.1c0-0.4-0.1-0.8-0.2-1.1
			c-0.1-0.3-0.3-0.5-0.5-0.7s-0.5-0.3-0.9-0.4c-0.4-0.1-0.8-0.1-1.3-0.1H20.2z M22.8,10.6c1.2,0,2.2,0.1,3,0.3
			c0.8,0.2,1.5,0.5,2,0.9c0.5,0.4,0.9,0.9,1.2,1.5c0.2,0.6,0.4,1.2,0.4,1.9c0,0.4-0.1,0.8-0.2,1.2c-0.1,0.4-0.3,0.7-0.5,1
			c-0.2,0.3-0.6,0.6-0.9,0.9c-0.4,0.3-0.8,0.5-1.4,0.7c1.2,0.3,2.1,0.7,2.6,1.4c0.6,0.6,0.9,1.5,0.9,2.5c0,0.7-0.1,1.4-0.4,2.1
			c-0.3,0.6-0.7,1.2-1.2,1.6c-0.5,0.5-1.2,0.8-2,1.1c-0.8,0.3-1.7,0.4-2.7,0.4h-6.7V10.6H22.8z M46.9,20.4c0-0.3,0-0.7-0.1-1
			c-0.1-0.3-0.2-0.6-0.4-0.8c-0.2-0.2-0.5-0.4-0.8-0.6c-0.3-0.1-0.7-0.2-1.1-0.2c-0.8,0-1.4,0.2-1.9,0.7c-0.4,0.4-0.7,1.1-0.9,1.9
			H46.9z M41.7,22.3c0.1,1.2,0.4,2,1,2.5c0.6,0.5,1.3,0.8,2.2,0.8c0.5,0,0.8-0.1,1.2-0.2c0.3-0.1,0.6-0.2,0.9-0.4
			c0.3-0.1,0.5-0.3,0.7-0.4c0.2-0.1,0.4-0.2,0.6-0.2c0.3,0,0.5,0.1,0.6,0.3l1,1.2c-0.4,0.4-0.7,0.7-1.2,1c-0.4,0.3-0.9,0.5-1.3,0.6
			c-0.5,0.2-0.9,0.3-1.4,0.3c-0.5,0.1-0.9,0.1-1.3,0.1c-0.9,0-1.7-0.1-2.4-0.4c-0.7-0.3-1.4-0.7-2-1.3c-0.6-0.6-1-1.3-1.3-2.1
			c-0.3-0.8-0.5-1.8-0.5-2.9c0-0.8,0.1-1.6,0.4-2.4c0.3-0.7,0.7-1.4,1.2-1.9s1.2-1,1.9-1.3c0.7-0.3,1.6-0.5,2.5-0.5
			c0.8,0,1.5,0.1,2.2,0.4c0.7,0.2,1.2,0.6,1.7,1.1c0.5,0.5,0.9,1.1,1.1,1.8c0.3,0.7,0.4,1.5,0.4,2.4c0,0.2,0,0.5,0,0.6
			c0,0.2-0.1,0.3-0.1,0.4c-0.1,0.1-0.1,0.2-0.2,0.2c-0.1,0-0.2,0-0.4,0H41.7z M65.6,22.8c-0.8,0-1.5,0.1-2,0.2
			c-0.5,0.1-1,0.2-1.3,0.4c-0.3,0.2-0.5,0.3-0.7,0.6c-0.1,0.2-0.2,0.4-0.2,0.7c0,0.5,0.1,0.8,0.4,1c0.3,0.2,0.6,0.3,1.1,0.3
			c0.6,0,1-0.1,1.4-0.3c0.4-0.2,0.8-0.5,1.2-0.9V22.8z M58.9,17.3c0.7-0.7,1.5-1.1,2.4-1.5c0.9-0.3,1.8-0.5,2.9-0.5
			c0.7,0,1.4,0.1,2,0.4c0.6,0.2,1.1,0.6,1.5,1c0.4,0.4,0.7,0.9,0.9,1.5c0.2,0.6,0.3,1.2,0.3,1.9V28h-1.5c-0.3,0-0.6,0-0.7-0.1
			c-0.2-0.1-0.3-0.3-0.4-0.6L66,26.5c-0.3,0.3-0.6,0.5-0.9,0.7c-0.3,0.2-0.6,0.4-0.9,0.5c-0.3,0.1-0.6,0.2-1,0.3
			c-0.4,0.1-0.7,0.1-1.2,0.1c-0.5,0-1-0.1-1.5-0.2c-0.4-0.1-0.8-0.4-1.2-0.6c-0.3-0.3-0.6-0.6-0.7-1.1s-0.3-0.9-0.3-1.5
			c0-0.5,0.1-0.9,0.3-1.4c0.2-0.5,0.6-0.9,1.2-1.2c0.6-0.4,1.3-0.7,2.3-0.9c0.9-0.2,2.1-0.4,3.5-0.4v-0.6c0-0.8-0.2-1.3-0.5-1.7
			c-0.3-0.4-0.8-0.6-1.4-0.6c-0.5,0-0.8,0.1-1.1,0.2c-0.3,0.1-0.6,0.2-0.8,0.3c-0.2,0.1-0.4,0.2-0.6,0.3c-0.2,0.1-0.4,0.2-0.7,0.2
			c-0.2,0-0.4-0.1-0.6-0.2c-0.2-0.1-0.3-0.3-0.4-0.4L58.9,17.3z M87.6,18.4c-0.1,0.1-0.2,0.2-0.3,0.3c-0.1,0.1-0.2,0.1-0.4,0.1
			c-0.2,0-0.3,0-0.5-0.1c-0.1-0.1-0.3-0.2-0.5-0.3c-0.2-0.1-0.4-0.2-0.7-0.3c-0.3-0.1-0.6-0.1-1-0.1c-0.5,0-0.9,0.1-1.3,0.3
			c-0.4,0.2-0.7,0.4-0.9,0.8s-0.4,0.7-0.5,1.2c-0.1,0.5-0.2,1-0.2,1.6c0,1.3,0.3,2.2,0.8,2.9c0.5,0.7,1.2,1,2.1,1
			c0.3,0,0.6,0,0.8-0.1c0.2-0.1,0.4-0.1,0.6-0.2c0.2-0.1,0.3-0.2,0.4-0.3c0.1-0.1,0.2-0.2,0.3-0.3c0.1-0.1,0.2-0.1,0.3-0.2
			c0.1-0.1,0.2-0.1,0.4-0.1c0.3,0,0.5,0.1,0.6,0.3l0.9,1.2c-0.4,0.4-0.7,0.7-1.1,1c-0.4,0.3-0.8,0.5-1.2,0.6
			c-0.4,0.2-0.9,0.3-1.3,0.3c-0.4,0.1-0.9,0.1-1.3,0.1c-0.8,0-1.5-0.1-2.2-0.4c-0.7-0.3-1.3-0.7-1.8-1.2c-0.5-0.5-0.9-1.2-1.2-2
			c-0.3-0.8-0.4-1.7-0.4-2.7c0-0.9,0.1-1.7,0.4-2.5c0.3-0.8,0.7-1.4,1.2-2c0.5-0.6,1.1-1,1.9-1.3c0.8-0.3,1.6-0.5,2.6-0.5
			c0.9,0,1.8,0.2,2.5,0.5c0.7,0.3,1.4,0.7,1.9,1.3L87.6,18.4z M100.8,16.8c0.2-0.2,0.5-0.4,0.7-0.6c0.3-0.2,0.5-0.3,0.8-0.4
			c0.3-0.1,0.6-0.2,0.9-0.3c0.3-0.1,0.7-0.1,1.1-0.1c0.7,0,1.3,0.1,1.8,0.3s1,0.6,1.3,1c0.4,0.4,0.6,0.9,0.8,1.5
			c0.2,0.6,0.3,1.2,0.3,1.9V28h-3.3v-7.9c0-0.7-0.2-1.2-0.5-1.6c-0.3-0.4-0.8-0.6-1.4-0.6c-0.5,0-0.9,0.1-1.3,0.3
			c-0.4,0.2-0.8,0.5-1.2,0.8V28h-3.3V10.1h3.3V16.8z"/>
		<path fill="#AF9A7D" d="M137.1,18.8c0.6,0,1.1-0.1,1.5-0.2c0.4-0.2,0.8-0.4,1-0.6c0.3-0.3,0.5-0.6,0.6-0.9s0.2-0.7,0.2-1.2
			c0-0.8-0.3-1.5-0.8-1.9c-0.5-0.5-1.4-0.7-2.5-0.7h-1.9v5.5H137.1z M145.5,28h-3.3c-0.6,0-1-0.2-1.3-0.7l-3.3-5.3
			c-0.1-0.2-0.3-0.4-0.5-0.5c-0.2-0.1-0.4-0.1-0.7-0.1h-1.2V28h-3.6V10.6h5.5c1.2,0,2.3,0.1,3.1,0.4c0.9,0.2,1.6,0.6,2.1,1
			s1,1,1.2,1.6c0.3,0.6,0.4,1.3,0.4,2c0,0.6-0.1,1.1-0.3,1.6c-0.2,0.5-0.4,1-0.7,1.4s-0.7,0.8-1.2,1.1c-0.5,0.3-1,0.6-1.6,0.8
			c0.2,0.1,0.4,0.3,0.6,0.5c0.2,0.2,0.4,0.4,0.5,0.6L145.5,28z M161,20.4c0-0.3,0-0.7-0.1-1c-0.1-0.3-0.2-0.6-0.4-0.8
			s-0.5-0.4-0.8-0.6c-0.3-0.1-0.7-0.2-1.1-0.2c-0.8,0-1.4,0.2-1.9,0.7c-0.4,0.4-0.7,1.1-0.9,1.9H161z M155.8,22.3
			c0.1,1.2,0.4,2,1,2.5c0.6,0.5,1.3,0.8,2.2,0.8c0.5,0,0.8-0.1,1.2-0.2c0.3-0.1,0.6-0.2,0.9-0.4c0.3-0.1,0.5-0.3,0.7-0.4
			c0.2-0.1,0.4-0.2,0.6-0.2c0.3,0,0.5,0.1,0.6,0.3l1,1.2c-0.4,0.4-0.7,0.7-1.2,1c-0.4,0.3-0.9,0.5-1.3,0.6c-0.5,0.2-0.9,0.3-1.4,0.3
			c-0.5,0.1-0.9,0.1-1.3,0.1c-0.9,0-1.7-0.1-2.4-0.4c-0.7-0.3-1.4-0.7-2-1.3c-0.6-0.6-1-1.3-1.3-2.1c-0.3-0.8-0.5-1.8-0.5-2.9
			c0-0.8,0.1-1.6,0.4-2.4c0.3-0.7,0.7-1.4,1.2-1.9c0.5-0.6,1.2-1,1.9-1.3c0.7-0.3,1.6-0.5,2.5-0.5c0.8,0,1.5,0.1,2.2,0.4
			c0.7,0.2,1.2,0.6,1.7,1.1c0.5,0.5,0.9,1.1,1.1,1.8c0.3,0.7,0.4,1.5,0.4,2.4c0,0.2,0,0.5,0,0.6s-0.1,0.3-0.1,0.4
			c-0.1,0.1-0.1,0.2-0.2,0.2c-0.1,0-0.2,0-0.4,0H155.8z M180.9,18.2c-0.1,0.1-0.2,0.2-0.3,0.3c-0.1,0.1-0.2,0.1-0.4,0.1
			c-0.2,0-0.3,0-0.5-0.1s-0.4-0.2-0.6-0.3c-0.2-0.1-0.4-0.2-0.7-0.3c-0.3-0.1-0.6-0.1-0.9-0.1c-0.5,0-1,0.1-1.2,0.3
			c-0.3,0.2-0.4,0.5-0.4,0.9c0,0.2,0.1,0.5,0.3,0.6c0.2,0.2,0.4,0.3,0.7,0.4c0.3,0.1,0.6,0.2,0.9,0.3c0.4,0.1,0.7,0.2,1.1,0.3
			c0.4,0.1,0.7,0.3,1.1,0.4c0.4,0.2,0.7,0.4,0.9,0.6c0.3,0.2,0.5,0.6,0.7,0.9c0.2,0.4,0.3,0.8,0.3,1.3c0,0.6-0.1,1.2-0.3,1.7
			c-0.2,0.5-0.5,0.9-1,1.3s-1,0.7-1.6,0.9c-0.6,0.2-1.4,0.3-2.2,0.3c-0.4,0-0.8,0-1.3-0.1c-0.4-0.1-0.8-0.2-1.2-0.3
			c-0.4-0.1-0.7-0.3-1.1-0.5s-0.6-0.4-0.9-0.6l0.8-1.2c0.1-0.1,0.2-0.3,0.3-0.3c0.1-0.1,0.3-0.1,0.5-0.1c0.2,0,0.4,0.1,0.6,0.2
			c0.2,0.1,0.4,0.2,0.6,0.3c0.2,0.1,0.5,0.2,0.7,0.3c0.3,0.1,0.6,0.1,1.1,0.1c0.3,0,0.6,0,0.8-0.1c0.2-0.1,0.4-0.2,0.6-0.3
			c0.1-0.1,0.2-0.3,0.3-0.4c0.1-0.2,0.1-0.3,0.1-0.5c0-0.3-0.1-0.5-0.3-0.7c-0.2-0.2-0.4-0.3-0.7-0.5c-0.3-0.1-0.6-0.2-0.9-0.3
			s-0.7-0.2-1.1-0.3c-0.4-0.1-0.7-0.3-1.1-0.5c-0.4-0.2-0.7-0.4-0.9-0.7c-0.3-0.3-0.5-0.6-0.7-1c-0.2-0.4-0.3-0.9-0.3-1.4
			c0-0.5,0.1-1,0.3-1.5c0.2-0.5,0.5-0.9,0.9-1.2c0.4-0.4,0.9-0.6,1.5-0.8c0.6-0.2,1.3-0.3,2.1-0.3c0.9,0,1.7,0.1,2.4,0.4
			s1.3,0.7,1.8,1.1L180.9,18.2z M196.6,15.4c0.9,0,1.8,0.1,2.5,0.4c0.8,0.3,1.4,0.7,2,1.3c0.5,0.5,1,1.2,1.3,2
			c0.3,0.8,0.4,1.7,0.4,2.7c0,1-0.1,1.9-0.4,2.7c-0.3,0.8-0.7,1.5-1.3,2s-1.2,1-2,1.3c-0.8,0.3-1.6,0.4-2.5,0.4
			c-0.9,0-1.8-0.1-2.6-0.4c-0.8-0.3-1.4-0.7-2-1.3s-1-1.2-1.3-2c-0.3-0.8-0.4-1.7-0.4-2.7c0-1,0.1-1.9,0.4-2.7
			c0.3-0.8,0.7-1.4,1.3-2c0.5-0.6,1.2-1,2-1.3C194.8,15.6,195.7,15.4,196.6,15.4z M196.6,25.7c0.9,0,1.6-0.3,2.1-1
			c0.5-0.7,0.7-1.6,0.7-2.9c0-1.3-0.2-2.2-0.7-2.9c-0.5-0.7-1.2-1-2.1-1c-1,0-1.7,0.3-2.1,1c-0.5,0.6-0.7,1.6-0.7,2.9
			c0,1.3,0.2,2.3,0.7,2.9C194.9,25.4,195.6,25.7,196.6,25.7z M215.2,17.7c0.4-0.7,0.8-1.3,1.4-1.7c0.5-0.4,1.1-0.6,1.8-0.6
			c0.6,0,1,0.1,1.4,0.4l-0.2,2.4c0,0.2-0.1,0.3-0.2,0.3c-0.1,0.1-0.2,0.1-0.3,0.1c-0.1,0-0.3,0-0.6,0c-0.2,0-0.5-0.1-0.7-0.1
			c-0.3,0-0.6,0-0.8,0.1c-0.2,0.1-0.4,0.2-0.6,0.4c-0.2,0.2-0.4,0.4-0.5,0.6c-0.1,0.2-0.3,0.5-0.4,0.8V28h-3.3V15.6h2
			c0.3,0,0.6,0.1,0.7,0.2c0.1,0.1,0.2,0.3,0.3,0.6L215.2,17.7z M232.6,28.2c-0.6,0-1.1-0.1-1.5-0.2c-0.4-0.2-0.8-0.4-1.1-0.7
			c-0.3-0.3-0.5-0.7-0.7-1.1c-0.2-0.4-0.2-0.9-0.2-1.5V18H228c-0.2,0-0.3-0.1-0.5-0.2c-0.1-0.1-0.2-0.3-0.2-0.5V16l2-0.4l0.7-3.2
			c0.1-0.4,0.3-0.5,0.7-0.5h1.7v3.8h3.2V18h-3.2v6.5c0,0.3,0.1,0.6,0.2,0.8c0.2,0.2,0.4,0.3,0.7,0.3c0.2,0,0.3,0,0.4,0
			c0.1,0,0.2-0.1,0.3-0.1c0.1,0,0.2-0.1,0.2-0.1c0.1,0,0.1-0.1,0.2-0.1c0.1,0,0.2,0,0.2,0.1c0.1,0,0.1,0.1,0.2,0.2l1,1.6
			c-0.5,0.4-1,0.6-1.5,0.8C233.8,28.1,233.2,28.2,232.6,28.2z"/>
	</g>
</g>
<g id="Layer_2">
	<g>
		<g>
			<path fill="#5759C3" d="M74.5,19.9c0.4,2.1,1.8,2.9,4.1,2.9c2.1,0,3.1-0.7,3.1-2.1c0-1.5-1-2.1-4.8-3c-7-1.7-8.3-4.2-8.3-7.4
				c0-4,2.9-7.3,9.5-7.3c6.8,0,9.6,3.5,9.9,7.2h-6.7C81.1,9,80.4,7.7,78,7.7c-1.6,0-2.6,0.6-2.6,1.9c0,1.3,0.9,1.8,4.5,2.7
				c7.3,1.8,8.7,4.4,8.7,7.8c0,4.4-3.4,7.5-10.3,7.5c-6.5,0-10-3-10.5-7.6H74.5z"/>
			<path fill="#5759C3" d="M90.6,9.1h2.6V4.5h6.6v4.6h3.1v4.5h-3.1v7.7c0,1.1,0.4,1.5,1.8,1.5c0.3,0,0.6,0,0.9,0v4.1
				c-1,0.3-2.8,0.4-3.9,0.4c-4.2,0-5.4-2.1-5.4-5.5v-8.3h-2.5V9.1z"/>
			<path fill="#5759C3" d="M122.7,21.7c0,2,0.1,4.7,0.2,5.3h-6.2c-0.1-0.4-0.3-1.2-0.3-1.7c-0.9,1.1-2.2,2.1-5.1,2.1
				c-4,0-6.2-2.5-6.2-5.7c0-4.2,3.4-6,8.9-6c0.6,0,1.6,0,2.2,0v-1c0-1.1-0.4-2-2-2c-1.5,0-1.9,0.7-2.1,1.8h-6.2c0.2-3,2-5.9,8.4-5.9
				c5.9,0,8.3,2.3,8.3,6.6V21.7z M116.3,19.1c-0.3,0-1,0-1.5,0c-2.3,0-3.1,0.8-3.1,2.1c0,1.1,0.6,1.9,2,1.9c2.3,0,2.6-1.5,2.6-3.5
				V19.1z"/>
			<path fill="#5759C3" d="M132.3,9.1c1.2,4.6,2.5,10.2,2.7,12.2h0.1c0.4-2.3,1.1-6.2,2.6-12.2h6.6L139,26c-1.8,5.8-3.2,8-8.9,8
				c-0.4,0-1.8-0.1-2.8-0.2V29c0.2,0,0.8,0.1,1.3,0.1c1.6,0,2.4-0.4,2.9-1.8l-6.4-18.2H132.3z"/>
			<path fill="#5759C3" d="M154.1,3.5V27h-6.9V3.5H154.1z"/>
			<path fill="#5759C3" d="M159.6,27V3.5h8.3c2.5,5.3,6.1,12.5,7.1,15.4h0.1c-0.3-2.4-0.3-6.6-0.3-10.4v-5h6.3V27h-7.9
				c-2-4.3-6.3-13.1-7.4-16.2h-0.1c0.2,2.2,0.2,6.8,0.2,10.9V27H159.6z"/>
		</g>
		<g>
			<path fill="#6A68F9" d="M154.1,3.5V27h-6.9V3.5H154.1z"/>
			<path fill="#6A68F9" d="M159.7,27V3.5h8.3c2.5,5.3,6.1,12.5,7.1,15.4h0.1c-0.3-2.4-0.3-6.6-0.3-10.4v-5h6.3V27h-7.9
				c-2-4.3-6.3-13.1-7.4-16.2h-0.1c0.2,2.2,0.2,6.8,0.2,10.9V27H159.7z"/>
		</g>
		<g>
			<path fill="none" stroke="#2A29A2" stroke-width="0.5" stroke-miterlimit="10" d="M75.7,19.9c0.4,2.1,1.8,2.9,4.1,2.9
				c2.1,0,3.1-0.7,3.1-2.1c0-1.5-1-2.1-4.8-3c-7-1.7-8.3-4.2-8.3-7.4c0-4,2.9-7.3,9.5-7.3c6.8,0,9.6,3.5,9.9,7.2h-6.7
				c-0.2-1.3-0.8-2.6-3.3-2.6c-1.6,0-2.6,0.6-2.6,1.9c0,1.3,0.9,1.8,4.5,2.7c7.3,1.8,8.7,4.4,8.7,7.8c0,4.4-3.4,7.5-10.3,7.5
				c-6.5,0-10-3-10.5-7.6H75.7z"/>
			<path fill="none" stroke="#2A29A2" stroke-width="0.5" stroke-miterlimit="10" d="M91.7,9.1h2.6V4.5h6.6v4.6h3.1v4.5h-3.1v7.7
				c0,1.1,0.4,1.5,1.8,1.5c0.3,0,0.6,0,0.9,0v4.1c-1,0.3-2.8,0.4-3.9,0.4c-4.2,0-5.4-2.1-5.4-5.5v-8.3h-2.5V9.1z"/>
			<path fill="none" stroke="#2A29A2" stroke-width="0.5" stroke-miterlimit="10" d="M123.9,21.7c0,2,0.1,4.7,0.2,5.3H118
				c-0.1-0.4-0.3-1.2-0.3-1.7c-0.9,1.1-2.2,2.1-5.1,2.1c-4,0-6.2-2.5-6.2-5.7c0-4.2,3.4-6,8.9-6c0.6,0,1.6,0,2.2,0v-1
				c0-1.1-0.4-2-2-2c-1.5,0-1.9,0.7-2.1,1.8h-6.2c0.2-3,2-5.9,8.4-5.9c5.9,0,8.3,2.3,8.3,6.6V21.7z M117.5,19.1c-0.3,0-1,0-1.5,0
				c-2.3,0-3.1,0.8-3.1,2.1c0,1.1,0.6,1.9,2,1.9c2.3,0,2.6-1.5,2.6-3.5V19.1z"/>
			<path fill="none" stroke="#2A29A2" stroke-width="0.5" stroke-miterlimit="10" d="M133.4,9.1c1.2,4.6,2.5,10.2,2.7,12.2h0.1
				c0.4-2.3,1.1-6.2,2.6-12.2h6.6L140.1,26c-1.8,5.8-3.2,8-8.9,8c-0.4,0-1.8-0.1-2.8-0.2V29c0.2,0,0.8,0.1,1.3,0.1
				c1.6,0,2.4-0.4,2.9-1.8l-6.4-18.2H133.4z"/>
			<path fill="none" stroke="#2A29A2" stroke-width="0.5" stroke-miterlimit="10" d="M155.2,3.5V27h-6.9V3.5H155.2z"/>
			<path fill="none" stroke="#2A29A2" stroke-width="0.5" stroke-miterlimit="10" d="M160.8,27V3.5h8.3c2.5,5.3,6.1,12.5,7.1,15.4
				h0.1c-0.3-2.4-0.3-6.6-0.3-10.4v-5h6.3V27h-7.9c-2-4.3-6.3-13.1-7.4-16.2h-0.1c0.2,2.2,0.2,6.8,0.2,10.9V27H160.8z"/>
		</g>
	</g>
</g>
</svg>
